0
SECTION
2
HEADER
9
$ACADVER
1
AC1006
0
ENDSEC
0
SECTION
2
TABLES
0
TABLE
2
LAYER
70
1
0
LAYER
70
0
62
1
6
CONTINUOUS
2
L1D0
0
ENDTAB
0
ENDSEC
0
SECTION
2
BLOCKS
0
ENDSEC
0
SECTION
2
ENTITIES
0
POLYLINE
8
L1D0
70
1
40
0
41
0
66
1
0
VERTEX
8
L1D0
10
0
20
-5
0
VERTEX
8
L1D0
10
-0.3
20
-4.999
0
VERTEX
8
L1D0
10
-0.6
20
-4.994
0
VERTEX
8
L1D0
10
-0.9
20
-4.987
0
VERTEX
8
L1D0
10
-1.2
20
-4.976
0
VERTEX
8
L1D0
10
-1.5
20
-4.963
0
VERTEX
8
L1D0
10
-1.8
20
-4.947
0
VERTEX
8
L1D0
10
-2.1
20
-4.928
0
VERTEX
8
L1D0
10
-2.4
20
-4.906
0
VERTEX
8
L1D0
10
-2.7
20
-4.881
0
VERTEX
8
L1D0
10
-3
20
-4.853
0
VERTEX
8
L1D0
10
-3.3
20
-4.823
0
VERTEX
8
L1D0
10
-3.6
20
-4.789
0
VERTEX
8
L1D0
10
-3.9
20
-4.753
0
VERTEX
8
L1D0
10
-4.2
20
-4.714
0
VERTEX
8
L1D0
10
-4.5
20
-4.673
0
VERTEX
8
L1D0
10
-4.8
20
-4.629
0
VERTEX
8
L1D0
10
-5.1
20
-4.582
0
VERTEX
8
L1D0
10
-5.4
20
-4.533
0
VERTEX
8
L1D0
10
-5.7
20
-4.481
0
VERTEX
8
L1D0
10
-6
20
-4.427
0
VERTEX
8
L1D0
10
-6.3
20
-4.37
0
VERTEX
8
L1D0
10
-6.6
20
-4.312
0
VERTEX
8
L1D0
10
-6.9
20
-4.25
0
VERTEX
8
L1D0
10
-7.2
20
-4.187
0
VERTEX
8
L1D0
10
-7.5
20
-4.121
0
VERTEX
8
L1D0
10
-7.8
20
-4.054
0
VERTEX
8
L1D0
10
-8.1
20
-3.984
0
VERTEX
8
L1D0
10
-8.4
20
-3.912
0
VERTEX
8
L1D0
10
-8.7
20
-3.839
0
VERTEX
8
L1D0
10
-9
20
-3.763
0
VERTEX
8
L1D0
10
-9.3
20
-3.686
0
VERTEX
8
L1D0
10
-9.6
20
-3.607
0
VERTEX
8
L1D0
10
-9.9
20
-3.527
0
VERTEX
8
L1D0
10
-10.2
20
-3.445
0
VERTEX
8
L1D0
10
-10.5
20
-3.362
0
VERTEX
8
L1D0
10
-10.8
20
-3.277
0
VERTEX
8
L1D0
10
-11.1
20
-3.191
0
VERTEX
8
L1D0
10
-11.4
20
-3.104
0
VERTEX
8
L1D0
10
-11.7
20
-3.016
0
VERTEX
8
L1D0
10
-12
20
-2.927
0
VERTEX
8
L1D0
10
-12.3
20
-2.837
0
VERTEX
8
L1D0
10
-12.6
20
-2.746
0
VERTEX
8
L1D0
10
-13.2
20
-2.562
0
VERTEX
8
L1D0
10
-13.8
20
-2.376
0
VERTEX
8
L1D0
10
-14.4
20
-2.188
0
VERTEX
8
L1D0
10
-15
20
-2
0
VERTEX
8
L1D0
10
-15
20
2
0
VERTEX
8
L1D0
10
-14.4
20
2.188
0
VERTEX
8
L1D0
10
-13.8
20
2.376
0
VERTEX
8
L1D0
10
-13.2
20
2.562
0
VERTEX
8
L1D0
10
-12.6
20
2.746
0
VERTEX
8
L1D0
10
-12.3
20
2.837
0
VERTEX
8
L1D0
10
-12
20
2.927
0
VERTEX
8
L1D0
10
-11.7
20
3.016
0
VERTEX
8
L1D0
10
-11.4
20
3.104
0
VERTEX
8
L1D0
10
-11.1
20
3.191
0
VERTEX
8
L1D0
10
-10.8
20
3.277
0
VERTEX
8
L1D0
10
-10.5
20
3.362
0
VERTEX
8
L1D0
10
-10.2
20
3.445
0
VERTEX
8
L1D0
10
-9.9
20
3.527
0
VERTEX
8
L1D0
10
-9.6
20
3.607
0
VERTEX
8
L1D0
10
-9.3
20
3.686
0
VERTEX
8
L1D0
10
-9
20
3.763
0
VERTEX
8
L1D0
10
-8.7
20
3.839
0
VERTEX
8
L1D0
10
-8.4
20
3.912
0
VERTEX
8
L1D0
10
-8.1
20
3.984
0
VERTEX
8
L1D0
10
-7.8
20
4.054
0
VERTEX
8
L1D0
10
-7.5
20
4.121
0
VERTEX
8
L1D0
10
-7.2
20
4.187
0
VERTEX
8
L1D0
10
-6.9
20
4.25
0
VERTEX
8
L1D0
10
-6.6
20
4.312
0
VERTEX
8
L1D0
10
-6.3
20
4.37
0
VERTEX
8
L1D0
10
-6
20
4.427
0
VERTEX
8
L1D0
10
-5.7
20
4.481
0
VERTEX
8
L1D0
10
-5.4
20
4.533
0
VERTEX
8
L1D0
10
-5.1
20
4.582
0
VERTEX
8
L1D0
10
-4.8
20
4.629
0
VERTEX
8
L1D0
10
-4.5
20
4.673
0
VERTEX
8
L1D0
10
-4.2
20
4.714
0
VERTEX
8
L1D0
10
-3.9
20
4.753
0
VERTEX
8
L1D0
10
-3.6
20
4.789
0
VERTEX
8
L1D0
10
-3.3
20
4.823
0
VERTEX
8
L1D0
10
-3
20
4.853
0
VERTEX
8
L1D0
10
-2.7
20
4.881
0
VERTEX
8
L1D0
10
-2.4
20
4.906
0
VERTEX
8
L1D0
10
-2.1
20
4.928
0
VERTEX
8
L1D0
10
-1.8
20
4.947
0
VERTEX
8
L1D0
10
-1.5
20
4.963
0
VERTEX
8
L1D0
10
-1.2
20
4.976
0
VERTEX
8
L1D0
10
-0.9
20
4.987
0
VERTEX
8
L1D0
10
-0.6
20
4.994
0
VERTEX
8
L1D0
10
-0.3
20
4.999
0
VERTEX
8
L1D0
10
0
20
5
0
VERTEX
8
L1D0
10
0.3
20
4.999
0
VERTEX
8
L1D0
10
0.6
20
4.994
0
VERTEX
8
L1D0
10
0.9
20
4.987
0
VERTEX
8
L1D0
10
1.2
20
4.976
0
VERTEX
8
L1D0
10
1.5
20
4.963
0
VERTEX
8
L1D0
10
1.8
20
4.947
0
VERTEX
8
L1D0
10
2.1
20
4.928
0
VERTEX
8
L1D0
10
2.4
20
4.906
0
VERTEX
8
L1D0
10
2.7
20
4.881
0
VERTEX
8
L1D0
10
3
20
4.853
0
VERTEX
8
L1D0
10
3.3
20
4.823
0
VERTEX
8
L1D0
10
3.6
20
4.789
0
VERTEX
8
L1D0
10
3.9
20
4.753
0
VERTEX
8
L1D0
10
4.2
20
4.714
0
VERTEX
8
L1D0
10
4.5
20
4.673
0
VERTEX
8
L1D0
10
4.8
20
4.629
0
VERTEX
8
L1D0
10
5.1
20
4.582
0
VERTEX
8
L1D0
10
5.4
20
4.533
0
VERTEX
8
L1D0
10
5.7
20
4.481
0
VERTEX
8
L1D0
10
6
20
4.427
0
VERTEX
8
L1D0
10
6.3
20
4.37
0
VERTEX
8
L1D0
10
6.6
20
4.312
0
VERTEX
8
L1D0
10
6.9
20
4.25
0
VERTEX
8
L1D0
10
7.2
20
4.187
0
VERTEX
8
L1D0
10
7.5
20
4.121
0
VERTEX
8
L1D0
10
7.8
20
4.054
0
VERTEX
8
L1D0
10
8.1
20
3.984
0
VERTEX
8
L1D0
10
8.4
20
3.912
0
VERTEX
8
L1D0
10
8.7
20
3.839
0
VERTEX
8
L1D0
10
9
20
3.763
0
VERTEX
8
L1D0
10
9.3
20
3.686
0
VERTEX
8
L1D0
10
9.6
20
3.607
0
VERTEX
8
L1D0
10
9.9
20
3.527
0
VERTEX
8
L1D0
10
10.2
20
3.445
0
VERTEX
8
L1D0
10
10.5
20
3.362
0
VERTEX
8
L1D0
10
10.8
20
3.277
0
VERTEX
8
L1D0
10
11.1
20
3.191
0
VERTEX
8
L1D0
10
11.4
20
3.104
0
VERTEX
8
L1D0
10
11.7
20
3.016
0
VERTEX
8
L1D0
10
12
20
2.927
0
VERTEX
8
L1D0
10
12.3
20
2.837
0
VERTEX
8
L1D0
10
12.6
20
2.746
0
VERTEX
8
L1D0
10
13.2
20
2.562
0
VERTEX
8
L1D0
10
13.8
20
2.376
0
VERTEX
8
L1D0
10
14.4
20
2.188
0
VERTEX
8
L1D0
10
15
20
2
0
VERTEX
8
L1D0
10
15
20
-2
0
VERTEX
8
L1D0
10
14.4
20
-2.188
0
VERTEX
8
L1D0
10
13.8
20
-2.376
0
VERTEX
8
L1D0
10
13.2
20
-2.562
0
VERTEX
8
L1D0
10
12.6
20
-2.746
0
VERTEX
8
L1D0
10
12.3
20
-2.837
0
VERTEX
8
L1D0
10
12
20
-2.927
0
VERTEX
8
L1D0
10
11.7
20
-3.016
0
VERTEX
8
L1D0
10
11.4
20
-3.104
0
VERTEX
8
L1D0
10
11.1
20
-3.191
0
VERTEX
8
L1D0
10
10.8
20
-3.277
0
VERTEX
8
L1D0
10
10.5
20
-3.362
0
VERTEX
8
L1D0
10
10.2
20
-3.445
0
VERTEX
8
L1D0
10
9.9
20
-3.527
0
VERTEX
8
L1D0
10
9.6
20
-3.607
0
VERTEX
8
L1D0
10
9.3
20
-3.686
0
VERTEX
8
L1D0
10
9
20
-3.763
0
VERTEX
8
L1D0
10
8.7
20
-3.839
0
VERTEX
8
L1D0
10
8.4
20
-3.912
0
VERTEX
8
L1D0
10
8.1
20
-3.984
0
VERTEX
8
L1D0
10
7.8
20
-4.054
0
VERTEX
8
L1D0
10
7.5
20
-4.121
0
VERTEX
8
L1D0
10
7.2
20
-4.187
0
VERTEX
8
L1D0
10
6.9
20
-4.25
0
VERTEX
8
L1D0
10
6.6
20
-4.312
0
VERTEX
8
L1D0
10
6.3
20
-4.37
0
VERTEX
8
L1D0
10
6
20
-4.427
0
VERTEX
8
L1D0
10
5.7
20
-4.481
0
VERTEX
8
L1D0
10
5.4
20
-4.533
0
VERTEX
8
L1D0
10
5.1
20
-4.582
0
VERTEX
8
L1D0
10
4.8
20
-4.629
0
VERTEX
8
L1D0
10
4.5
20
-4.673
0
VERTEX
8
L1D0
10
4.2
20
-4.714
0
VERTEX
8
L1D0
10
3.9
20
-4.753
0
VERTEX
8
L1D0
10
3.6
20
-4.789
0
VERTEX
8
L1D0
10
3.3
20
-4.823
0
VERTEX
8
L1D0
10
3
20
-4.853
0
VERTEX
8
L1D0
10
2.7
20
-4.881
0
VERTEX
8
L1D0
10
2.4
20
-4.906
0
VERTEX
8
L1D0
10
2.1
20
-4.928
0
VERTEX
8
L1D0
10
1.8
20
-4.947
0
VERTEX
8
L1D0
10
1.5
20
-4.963
0
VERTEX
8
L1D0
10
1.2
20
-4.976
0
VERTEX
8
L1D0
10
0.9
20
-4.987
0
VERTEX
8
L1D0
10
0.6
20
-4.994
0
VERTEX
8
L1D0
10
0.3
20
-4.999
0
SEQEND
0
POLYLINE
8
L1D0
70
1
40
0
41
0
66
1
0
VERTEX
8
L1D0
10
-16
20
-250
0
VERTEX
8
L1D0
10
-16
20
250
0
VERTEX
8
L1D0
10
-15
20
250
0
VERTEX
8
L1D0
10
-15
20
-250
0
SEQEND
0
POLYLINE
8
L1D0
70
1
40
0
41
0
66
1
0
VERTEX
8
L1D0
10
15
20
-250
0
VERTEX
8
L1D0
10
15
20
250
0
VERTEX
8
L1D0
10
16
20
250
0
VERTEX
8
L1D0
10
16
20
-250
0
SEQEND
0
ENDSEC
0
EOF
